# xmcd
#
# Track frame offsets:
#	150
#	11986
#	22233
#	33538
#	46356
#	61713
#	76329
#	86490
#	95427
#	109004
#	122846
#	136141
#
# Disc length: 1974 seconds
#
# Revision: 1
# Processed by: cddbd v1.5.1PL2 Copyright (c) Steve Scherf et al.
# Submitted via: audiograbber 1.83.01
#
DISCID=9807b40c
DTITLE=Don Gibson - Oh Boy Classics presents Don Gibson
DYEAR=1900
DGENRE=Country
TTITLE0=Oh Lonesome Me
TTITLE1=Sea Of Heartbreak
TTITLE2=I'd Be A Legend In My Time
TTITLE3=Snap Your Fingers
TTITLE4=Sweat Dreams
TTITLE5=I Can't Stop Loving You
TTITLE6=Country Green
TTITLE7=Blue Blue Day
TTITLE8=Release Me
TTITLE9=Touch The Morning
TTITLE10=There Goes My Everything
TTITLE11=Bring Back Your Love To Me
EXTD=\nwww.ohboy.com\nOBR-408
EXTT0=
EXTT1=
EXTT2=
EXTT3=
EXTT4=
EXTT5=
EXTT6=
EXTT7=
EXTT8=
EXTT9=
EXTT10=
EXTT11=
PLAYORDER=
